<svg width="23" height="23" viewBox="0 0 23 23" fill="none" xmlns="http://www.w3.org/2000/svg">
<circle cx="11.4998" cy="11.4994" r="3.03846" stroke="white" stroke-width="2"/>
<circle cx="11.4998" cy="11.5008" r="7.07692" stroke="white" stroke-width="2"/>
<path d="M12.4998 19.5762V18.5762H10.4998V19.5762H12.4998ZM10.4998 21.9992C10.4998 22.5515 10.9475 22.9992 11.4998 22.9992C12.0521 22.9992 12.4998 22.5515 12.4998 21.9992H10.4998ZM10.4998 19.5762V21.9992H12.4998V19.5762H10.4998Z" fill="white"/>
<path d="M19.5767 10.5H18.5767V12.5H19.5767V10.5ZM21.9998 12.5C22.5521 12.5 22.9998 12.0523 22.9998 11.5C22.9998 10.9477 22.5521 10.5 21.9998 10.5V12.5ZM19.5767 12.5H21.9998V10.5H19.5767V12.5Z" fill="white"/>
<path d="M3.42285 12.5H4.42285V10.5H3.42285V12.5ZM0.999775 10.5C0.44749 10.5 -0.000225306 10.9477 -0.000225306 11.5C-0.000225306 12.0523 0.44749 12.5 0.999775 12.5V10.5ZM3.42285 10.5H0.999775V12.5H3.42285V10.5Z" fill="white"/>
<path d="M10.4998 3.42383V4.42383H12.4998V3.42383H10.4998ZM12.4998 1.00075C12.4998 0.448467 12.0521 0.000751257 11.4998 0.000751257C10.9475 0.000751257 10.4998 0.448467 10.4998 1.00075H12.4998ZM12.4998 3.42383V1.00075H10.4998V3.42383H12.4998Z" fill="white"/>
</svg>
